<svg width="34" height="34" viewBox="0 0 34 34" fill="none" xmlns="http://www.w3.org/2000/svg">
<path d="M17 0.111328C13.6597 0.111328 10.3944 1.10184 7.61702 2.95762C4.83965 4.81339 2.67496 7.45108 1.39668 10.5371C0.118402 13.6232 -0.216055 17.019 0.435607 20.2951C1.08727 23.5712 2.69578 26.5805 5.05773 28.9425C7.41969 31.3044 10.429 32.9129 13.7051 33.5646C16.9812 34.2163 20.377 33.8818 23.4631 32.6035C26.5491 31.3252 29.1868 29.1605 31.0426 26.3832C32.8984 23.6058 33.8889 20.3405 33.8889 17.0002C33.8889 12.521 32.1095 8.22525 28.9422 5.05797C25.7749 1.89069 21.4792 0.111328 17 0.111328V0.111328ZM17 31.778C14.0772 31.778 11.2201 30.9113 8.78989 29.2875C6.35969 27.6637 4.46559 25.3557 3.34709 22.6554C2.2286 19.9551 1.93595 16.9838 2.50615 14.1172C3.07636 11.2506 4.4838 8.61746 6.55051 6.55075C8.61722 4.48404 11.2504 3.07659 14.117 2.50639C16.9836 1.93619 19.9549 2.22884 22.6552 3.34733C25.3555 4.46583 27.6634 6.35993 29.2873 8.79012C30.9111 11.2203 31.7778 14.0774 31.7778 17.0002C31.7778 20.9195 30.2208 24.6783 27.4494 27.4497C24.6781 30.2211 20.9193 31.778 17 31.778Z" fill="white"/>
<path d="M23.3333 15.9443H10.6666C10.3867 15.9443 10.1182 16.0555 9.92025 16.2535C9.72229 16.4515 9.61108 16.7199 9.61108 16.9999C9.61108 17.2798 9.72229 17.5483 9.92025 17.7463C10.1182 17.9442 10.3867 18.0554 10.6666 18.0554H23.3333C23.6133 18.0554 23.8817 17.9442 24.0797 17.7463C24.2777 17.5483 24.3889 17.2798 24.3889 16.9999C24.3889 16.7199 24.2777 16.4515 24.0797 16.2535C23.8817 16.0555 23.6133 15.9443 23.3333 15.9443Z" fill="white"/>
</svg>
