<svg width="236" height="128" viewBox="0 0 236 128" fill="none" xmlns="http://www.w3.org/2000/svg">
<path d="M64.66 91.2222C62.9073 91.2222 61.2221 90.7563 59.6717 89.891L39.9883 78.6428C36.8874 76.9124 35 73.651 35 70.1236V47.6936C35 44.1661 36.8874 40.9048 39.9883 39.1743L59.6717 27.926C62.7725 26.1956 66.5474 26.1956 69.6482 27.926L89.3317 39.1743C92.4324 40.9048 94.3199 44.1661 94.3199 47.6936V70.1236C94.3199 73.651 92.4324 76.9124 89.3317 78.6428L69.6482 89.891C68.0978 90.7563 66.4126 91.2222 64.66 91.2222ZM64.66 27.7264C63.4466 27.7264 62.2332 28.0592 61.0873 28.6582L39.9209 40.7716C37.7638 42.0362 36.3482 44.3657 36.3482 46.8283V70.9887C36.3482 73.5179 37.6964 75.7809 39.9209 77.0455L61.0873 89.0923C63.2444 90.3569 66.0081 90.3569 68.1651 89.0923L89.3317 77.0455C91.4887 75.7809 92.9043 73.4513 92.9043 70.9887V46.8283C92.9043 44.2991 91.5562 42.0362 89.3317 40.7716L68.2326 28.6582C67.1541 28.0592 65.8733 27.7264 64.66 27.7264Z" fill="#FEC882"/>
<path d="M121.3 55.7954H117.586L111.373 46.446V55.7954H107.658V40.5649H111.373L117.586 50.0004V40.5649H121.3V55.7954Z" fill="#FFFAF3"/>
<path d="M128.472 43.6243C129.398 43.6243 130.195 43.8326 130.861 44.249C131.527 44.6654 132.02 45.2328 132.338 45.9508V43.7751H136.031V55.7958H132.338V53.62C132.02 54.338 131.527 54.9053 130.861 55.3218C130.195 55.7383 129.398 55.9466 128.472 55.9466C127.472 55.9466 126.574 55.7024 125.778 55.214C124.996 54.7114 124.373 53.9933 123.91 53.0599C123.461 52.1263 123.236 51.0348 123.236 49.7854C123.236 48.5215 123.461 47.43 123.91 46.511C124.373 45.5774 124.996 44.8666 125.778 44.3782C126.574 43.8755 127.472 43.6243 128.472 43.6243ZM129.666 46.8556C128.87 46.8556 128.225 47.1141 127.733 47.6312C127.255 48.1482 127.016 48.8663 127.016 49.7854C127.016 50.7046 127.255 51.4226 127.733 51.9396C128.225 52.4566 128.87 52.7152 129.666 52.7152C130.448 52.7152 131.086 52.4495 131.578 51.9181C132.085 51.3868 132.338 50.6758 132.338 49.7854C132.338 48.8806 132.085 48.1697 131.578 47.6527C131.086 47.1213 130.448 46.8556 129.666 46.8556Z" fill="#FFFAF3"/>
<path d="M145.453 52.6289V55.7957H143.78C142.361 55.7957 141.253 55.451 140.457 54.7617C139.675 54.0579 139.284 52.9018 139.284 51.2934V46.8771H137.654V43.775H139.284V40.8237H142.998V43.775H145.431V46.8771H142.998V51.358C142.998 51.8319 143.092 52.1622 143.281 52.3489C143.483 52.5356 143.817 52.6289 144.28 52.6289H145.453Z" fill="#FFFAF3"/>
<path d="M147.193 40.3927C147.193 39.8325 147.396 39.373 147.802 39.014C148.207 38.6406 148.743 38.4539 149.409 38.4539C150.075 38.4539 150.611 38.6406 151.017 39.014C151.422 39.373 151.625 39.8325 151.625 40.3927C151.625 40.9384 151.422 41.3979 151.017 41.7714C150.611 42.1305 150.075 42.3099 149.409 42.3099C148.743 42.3099 148.207 42.1305 147.802 41.7714C147.396 41.3979 147.193 40.9384 147.193 40.3927ZM151.256 43.7749V55.7956H147.541V43.7749H151.256Z" fill="#FFFAF3"/>
<path d="M159.49 43.6243C160.692 43.6243 161.764 43.8755 162.705 44.3782C163.661 44.8666 164.407 45.5774 164.943 46.511C165.493 47.4444 165.768 48.5359 165.768 49.7854C165.768 51.0348 165.493 52.1263 164.943 53.0599C164.407 53.9933 163.661 54.7114 162.705 55.214C161.764 55.7024 160.692 55.9466 159.49 55.9466C158.288 55.9466 157.209 55.7024 156.254 55.214C155.298 54.7114 154.545 53.9933 153.994 53.0599C153.459 52.1263 153.191 51.0348 153.191 49.7854C153.191 48.5359 153.459 47.4444 153.994 46.511C154.545 45.5774 155.298 44.8666 156.254 44.3782C157.209 43.8755 158.288 43.6243 159.49 43.6243ZM159.49 46.8126C158.781 46.8126 158.18 47.0711 157.687 47.5881C157.209 48.0907 156.97 48.8232 156.97 49.7854C156.97 50.7477 157.209 51.4801 157.687 51.9827C158.18 52.4854 158.781 52.7366 159.49 52.7366C160.2 52.7366 160.794 52.4854 161.272 51.9827C161.75 51.4801 161.989 50.7477 161.989 49.7854C161.989 48.8232 161.75 48.0907 161.272 47.5881C160.794 47.0711 160.2 46.8126 159.49 46.8126Z" fill="#FFFAF3"/>
<path d="M175.385 43.6455C176.775 43.6455 177.876 44.1052 178.687 45.0243C179.513 45.9433 179.925 47.2073 179.925 48.8157V55.7955H176.211V49.2466C176.211 48.4423 175.993 47.8176 175.558 47.3723C175.138 46.9128 174.574 46.683 173.864 46.683C173.111 46.683 172.511 46.92 172.061 47.3939C171.626 47.8678 171.409 48.5429 171.409 49.4189V55.7955H167.694V43.7748H171.409V45.9721C171.757 45.254 172.271 44.6868 172.952 44.2702C173.646 43.8538 174.458 43.6455 175.385 43.6455Z" fill="#FFFAF3"/>
<path d="M186.979 43.6243C187.907 43.6243 188.703 43.8326 189.37 44.249C190.035 44.6654 190.528 45.2328 190.847 45.9508V43.7751H194.539V55.7958H190.847V53.62C190.528 54.338 190.035 54.9053 189.37 55.3218C188.703 55.7383 187.907 55.9466 186.979 55.9466C185.981 55.9466 185.082 55.7024 184.286 55.214C183.503 54.7114 182.881 53.9933 182.417 53.0599C181.968 52.1263 181.744 51.0348 181.744 49.7854C181.744 48.5215 181.968 47.43 182.417 46.511C182.881 45.5774 183.503 44.8666 184.286 44.3782C185.082 43.8755 185.981 43.6243 186.979 43.6243ZM188.174 46.8556C187.377 46.8556 186.733 47.1141 186.241 47.6312C185.763 48.1482 185.525 48.8663 185.525 49.7854C185.525 50.7046 185.763 51.4226 186.241 51.9396C186.733 52.4566 187.377 52.7152 188.174 52.7152C188.956 52.7152 189.594 52.4495 190.086 51.9181C190.592 51.3868 190.847 50.6758 190.847 49.7854C190.847 48.8806 190.592 48.1697 190.086 47.6527C189.594 47.1213 188.956 46.8556 188.174 46.8556Z" fill="#FFFAF3"/>
<path d="M200.811 39.854V55.7954H197.097V39.854H200.811Z" fill="#FFFAF3"/>
<path d="M113.198 65.3174C114.748 65.3174 116.029 65.7267 117.043 66.5453C118.057 67.3496 118.687 68.4482 118.933 69.8413H116.305C116.16 69.0946 115.805 68.5129 115.24 68.0964C114.69 67.6656 113.995 67.4502 113.155 67.4502C112.199 67.4502 111.402 67.7876 110.765 68.4626C110.128 69.1233 109.809 70.0998 109.809 71.3924C109.809 72.6849 110.128 73.6687 110.765 74.3437C111.402 75.0187 112.199 75.3562 113.155 75.3562C113.995 75.3562 114.69 75.1408 115.24 74.7099C115.805 74.2791 116.16 73.6902 116.305 72.9434H118.933C118.687 74.3366 118.057 75.4424 117.043 76.2609C116.029 77.0796 114.748 77.4889 113.198 77.4889C112.039 77.4889 111.011 77.2447 110.113 76.7565C109.23 76.2682 108.535 75.5645 108.028 74.6453C107.521 73.7262 107.268 72.6418 107.268 71.3924C107.268 70.1573 107.521 69.0802 108.028 68.161C108.535 67.2419 109.23 66.5382 110.113 66.0498C111.011 65.5615 112.039 65.3174 113.198 65.3174Z" fill="#FFFAF3"/>
<path d="M126.126 65.3174C127.212 65.3174 128.139 65.5831 128.906 66.1145C129.674 66.6459 130.217 67.3496 130.536 68.2257V65.4682H133.012V77.3381H130.536V74.5807C130.217 75.4567 129.674 76.1605 128.906 76.6919C128.139 77.2233 127.212 77.4889 126.126 77.4889C125.083 77.4889 124.149 77.2447 123.324 76.7565C122.513 76.2682 121.875 75.5645 121.412 74.6453C120.949 73.7262 120.717 72.6418 120.717 71.3924C120.717 70.1573 120.949 69.0802 121.412 68.161C121.875 67.2419 122.513 66.5382 123.324 66.0498C124.149 65.5615 125.083 65.3174 126.126 65.3174ZM126.886 67.4717C125.786 67.4717 124.902 67.8235 124.236 68.5272C123.584 69.2166 123.258 70.1717 123.258 71.3924C123.258 72.6131 123.584 73.5754 124.236 74.2791C124.902 74.9684 125.786 75.3131 126.886 75.3131C127.581 75.3131 128.204 75.1552 128.754 74.8392C129.305 74.5088 129.739 74.0493 130.058 73.4604C130.376 72.8716 130.536 72.1823 130.536 71.3924C130.536 70.6169 130.376 69.9347 130.058 69.3458C129.739 68.7427 129.305 68.283 128.754 67.9672C128.204 67.6368 127.581 67.4717 126.886 67.4717Z" fill="#FFFAF3"/>
<path d="M139.917 65.3174C141.322 65.3174 142.444 65.6765 143.284 66.3945C144.139 67.0982 144.66 68.0462 144.848 69.2381H142.502C142.401 68.5919 142.118 68.0749 141.655 67.6871C141.206 67.285 140.605 67.084 139.852 67.084C139.229 67.084 138.744 67.2346 138.396 67.5363C138.063 67.8235 137.897 68.2184 137.897 68.7211C137.897 69.0946 138.02 69.3962 138.266 69.6259C138.512 69.8557 138.816 70.0353 139.178 70.1644C139.555 70.2938 140.084 70.4373 140.764 70.5954C141.662 70.7964 142.386 71.0047 142.937 71.2201C143.501 71.4355 143.979 71.7802 144.37 72.2541C144.776 72.7137 144.978 73.3456 144.978 74.1498C144.978 75.1408 144.595 75.9451 143.827 76.5625C143.074 77.1801 142.053 77.4889 140.764 77.4889C139.272 77.4889 138.063 77.1442 137.136 76.4548C136.224 75.7655 135.674 74.8032 135.485 73.5681H137.897C137.969 74.2145 138.259 74.7386 138.766 75.1408C139.272 75.5429 139.939 75.7439 140.764 75.7439C141.358 75.7439 141.821 75.5931 142.155 75.2916C142.502 74.9756 142.676 74.5807 142.676 74.1068C142.676 73.6902 142.545 73.3599 142.285 73.1157C142.024 72.8716 141.698 72.6849 141.307 72.5557C140.916 72.4121 140.38 72.2685 139.7 72.1248C138.831 71.9238 138.121 71.7227 137.571 71.5217C137.035 71.3205 136.572 70.9974 136.181 70.5523C135.804 70.0926 135.616 69.4751 135.616 68.6996C135.616 67.6943 135.992 66.8828 136.745 66.2653C137.513 65.6334 138.57 65.3174 139.917 65.3174Z" fill="#FFFAF3"/>
<path d="M147.114 62.0212C147.114 61.6048 147.259 61.2601 147.549 60.9872C147.838 60.7143 148.222 60.5779 148.7 60.5779C149.178 60.5779 149.562 60.7143 149.851 60.9872C150.155 61.2601 150.308 61.6048 150.308 62.0212C150.308 62.4378 150.155 62.7753 149.851 63.0338C149.562 63.2923 149.178 63.4216 148.7 63.4216C148.222 63.4216 147.838 63.2923 147.549 63.0338C147.259 62.7753 147.114 62.4378 147.114 62.0212ZM149.938 65.468V77.3379H147.462V65.468H149.938Z" fill="#FFFAF3"/>
<path d="M159.625 65.2742C161.016 65.2742 162.131 65.7195 162.971 66.6098C163.811 67.5003 164.231 68.7713 164.231 70.4228V77.338H161.754V70.6813C161.754 69.6186 161.479 68.7999 160.929 68.2256C160.378 67.6367 159.625 67.3424 158.67 67.3424C157.685 67.3424 156.896 67.6582 156.302 68.2902C155.708 68.9078 155.411 69.8197 155.411 71.0261V77.338H152.935V65.4681H155.411V68.0748C155.73 67.1843 156.266 66.495 157.019 66.0067C157.772 65.5184 158.641 65.2742 159.625 65.2742Z" fill="#FFFAF3"/>
<path d="M172.601 65.3174C173.76 65.3174 174.802 65.5615 175.729 66.0498C176.656 66.5382 177.381 67.2419 177.901 68.161C178.423 69.0802 178.684 70.1573 178.684 71.3924C178.684 72.6418 178.423 73.7262 177.901 74.6453C177.381 75.5645 176.656 76.2682 175.729 76.7565C174.802 77.2447 173.76 77.4889 172.601 77.4889C171.443 77.4889 170.399 77.2447 169.473 76.7565C168.561 76.2682 167.837 75.5645 167.3 74.6453C166.78 73.7118 166.519 72.6274 166.519 71.3924C166.519 70.1573 166.78 69.0802 167.3 68.161C167.837 67.2419 168.561 66.5382 169.473 66.0498C170.399 65.5615 171.443 65.3174 172.601 65.3174ZM172.601 67.4502C171.964 67.4502 171.377 67.5937 170.842 67.881C170.306 68.1682 169.871 68.6134 169.538 69.2166C169.22 69.8055 169.061 70.5306 169.061 71.3924C169.061 72.2685 169.22 73.0009 169.538 73.5898C169.871 74.1785 170.306 74.6165 170.842 74.9038C171.377 75.191 171.964 75.3346 172.601 75.3346C173.238 75.3346 173.825 75.191 174.36 74.9038C174.897 74.6165 175.324 74.1785 175.642 73.5898C175.976 73.0009 176.142 72.2685 176.142 71.3924C176.142 70.5306 175.976 69.8055 175.642 69.2166C175.324 68.6134 174.897 68.1682 174.36 67.881C173.825 67.5937 173.238 67.4502 172.601 67.4502Z" fill="#FFFAF3"/>
<path fill-rule="evenodd" clip-rule="evenodd" d="M69.0539 34.0954L85.0298 43.2138C87.4565 44.6115 89.0069 47.2737 89.0069 50.1358V68.2394C89.0069 71.1014 87.4565 73.7636 84.9624 75.1614L69.0539 84.2798C67.7731 85.0119 66.4249 85.3447 65.0094 85.3447C63.5938 85.3447 62.1782 85.0119 60.9647 84.2798L45.0563 75.2279C42.5621 73.7636 41.0117 71.168 41.0117 68.3059V50.1358C41.0117 47.2737 42.5621 44.6115 45.0563 43.2138L60.9647 34.0954C63.459 32.6977 66.5597 32.6977 69.0539 34.0954ZM70.1359 71.4932H76.2666V46.357H70.1359V61.9293L59.8822 46.357H53.7516V71.4932H59.8822V56.0631L70.1359 71.4932Z" fill="#FEC882"/>
<path d="M64.66 90.594C62.9073 90.594 61.2221 90.1282 59.6717 89.2629L39.9883 78.0147C36.8874 76.2842 35 73.0229 35 69.4954V47.0654C35 43.5379 36.8874 40.2766 39.9883 38.5461L59.6717 27.2979C62.7725 25.5674 66.5474 25.5674 69.6482 27.2979L89.3317 38.5461C92.4324 40.2766 94.3199 43.5379 94.3199 47.0654V69.4954C94.3199 73.0229 92.4324 76.2842 89.3317 78.0147L69.6482 89.2629C68.0978 90.1282 66.4126 90.594 64.66 90.594ZM64.66 27.0982C63.4466 27.0982 62.2332 27.431 61.0873 28.03L39.9209 40.1435C37.7638 41.4081 36.3482 43.7375 36.3482 46.2001V70.3605C36.3482 72.8897 37.6964 75.1528 39.9209 76.4174L61.0873 88.4641C63.2444 89.7287 66.0081 89.7287 68.1651 88.4641L89.3317 76.4174C91.4887 75.1528 92.9043 72.8232 92.9043 70.3605V46.2001C92.9043 43.6709 91.5562 41.4081 89.3317 40.1435L68.2326 28.03C67.1541 27.431 65.8733 27.0982 64.66 27.0982Z" fill="#FEC882"/>
<path d="M121.3 55.1675H117.586L111.373 45.8181V55.1675H107.658V39.937H111.373L117.586 49.3725V39.937H121.3V55.1675Z" fill="#FFFAF3"/>
<path d="M128.472 42.9958C129.398 42.9958 130.195 43.2041 130.861 43.6206C131.527 44.037 132.02 44.6044 132.338 45.3224V43.1467H136.031V55.1673H132.338V52.9916C132.02 53.7096 131.527 54.2769 130.861 54.6934C130.195 55.1099 129.398 55.3181 128.472 55.3181C127.472 55.3181 126.574 55.074 125.778 54.5856C124.996 54.083 124.373 53.3649 123.91 52.4315C123.461 51.4979 123.236 50.4064 123.236 49.1569C123.236 47.8931 123.461 46.8016 123.91 45.8825C124.373 44.949 124.996 44.2382 125.778 43.7498C126.574 43.2471 127.472 42.9958 128.472 42.9958ZM129.666 46.2271C128.87 46.2271 128.225 46.4856 127.733 47.0028C127.255 47.5198 127.016 48.2379 127.016 49.1569C127.016 50.0761 127.255 50.7942 127.733 51.3112C128.225 51.8282 128.87 52.0867 129.666 52.0867C130.448 52.0867 131.086 51.8211 131.578 51.2897C132.085 50.7583 132.338 50.0474 132.338 49.1569C132.338 48.2522 132.085 47.5413 131.578 47.0243C131.086 46.4929 130.448 46.2271 129.666 46.2271Z" fill="#FFFAF3"/>
<path d="M145.453 52.0007V55.1675H143.78C142.361 55.1675 141.253 54.8228 140.457 54.1335C139.675 53.4297 139.284 52.2736 139.284 50.6652V46.2489H137.654V43.1468H139.284V40.1956H142.998V43.1468H145.431V46.2489H142.998V50.7298C142.998 51.2037 143.092 51.5341 143.281 51.7207C143.483 51.9074 143.817 52.0007 144.28 52.0007H145.453Z" fill="#FFFAF3"/>
<path d="M147.193 39.7647C147.193 39.2046 147.396 38.7451 147.802 38.3861C148.207 38.0126 148.743 37.8259 149.409 37.8259C150.075 37.8259 150.611 38.0126 151.017 38.3861C151.422 38.7451 151.625 39.2046 151.625 39.7647C151.625 40.3105 151.422 40.77 151.017 41.1435C150.611 41.5026 150.075 41.682 149.409 41.682C148.743 41.682 148.207 41.5026 147.802 41.1435C147.396 40.77 147.193 40.3105 147.193 39.7647ZM151.256 43.1469V55.1676H147.541V43.1469H151.256Z" fill="#FFFAF3"/>
<path d="M159.49 42.9958C160.692 42.9958 161.764 43.2471 162.705 43.7498C163.661 44.2382 164.407 44.949 164.943 45.8825C165.493 46.816 165.768 47.9075 165.768 49.1569C165.768 50.4064 165.493 51.4979 164.943 52.4315C164.407 53.3649 163.661 54.083 162.705 54.5856C161.764 55.074 160.692 55.3181 159.49 55.3181C158.288 55.3181 157.209 55.074 156.254 54.5856C155.298 54.083 154.545 53.3649 153.994 52.4315C153.459 51.4979 153.191 50.4064 153.191 49.1569C153.191 47.9075 153.459 46.816 153.994 45.8825C154.545 44.949 155.298 44.2382 156.254 43.7498C157.209 43.2471 158.288 42.9958 159.49 42.9958ZM159.49 46.1842C158.781 46.1842 158.18 46.4427 157.687 46.9597C157.209 47.4623 156.97 48.1947 156.97 49.1569C156.97 50.1193 157.209 50.8517 157.687 51.3543C158.18 51.857 158.781 52.1082 159.49 52.1082C160.2 52.1082 160.794 51.857 161.272 51.3543C161.75 50.8517 161.989 50.1193 161.989 49.1569C161.989 48.1947 161.75 47.4623 161.272 46.9597C160.794 46.4427 160.2 46.1842 159.49 46.1842Z" fill="#FFFAF3"/>
<path d="M175.385 43.0173C176.775 43.0173 177.876 43.477 178.687 44.3961C179.513 45.3152 179.925 46.5791 179.925 48.1875V55.1673H176.211V48.6184C176.211 47.8142 175.993 47.1895 175.558 46.7441C175.138 46.2846 174.574 46.0548 173.864 46.0548C173.111 46.0548 172.511 46.2919 172.061 46.7658C171.626 47.2397 171.409 47.9147 171.409 48.7907V55.1673H167.694V43.1467H171.409V45.3439C171.757 44.6259 172.271 44.0586 172.952 43.6421C173.646 43.2256 174.458 43.0173 175.385 43.0173Z" fill="#FFFAF3"/>
<path d="M186.979 42.9958C187.907 42.9958 188.703 43.2041 189.37 43.6206C190.035 44.037 190.528 44.6044 190.847 45.3224V43.1467H194.539V55.1673H190.847V52.9916C190.528 53.7096 190.035 54.2769 189.37 54.6934C188.703 55.1099 187.907 55.3181 186.979 55.3181C185.981 55.3181 185.082 55.074 184.286 54.5856C183.503 54.083 182.881 53.3649 182.417 52.4315C181.968 51.4979 181.744 50.4064 181.744 49.1569C181.744 47.8931 181.968 46.8016 182.417 45.8825C182.881 44.949 183.503 44.2382 184.286 43.7498C185.082 43.2471 185.981 42.9958 186.979 42.9958ZM188.174 46.2271C187.377 46.2271 186.733 46.4856 186.241 47.0028C185.763 47.5198 185.525 48.2379 185.525 49.1569C185.525 50.0761 185.763 50.7942 186.241 51.3112C186.733 51.8282 187.377 52.0867 188.174 52.0867C188.956 52.0867 189.594 51.8211 190.086 51.2897C190.592 50.7583 190.847 50.0474 190.847 49.1569C190.847 48.2522 190.592 47.5413 190.086 47.0243C189.594 46.4929 188.956 46.2271 188.174 46.2271Z" fill="#FFFAF3"/>
<path d="M200.811 39.2258V55.1672H197.097V39.2258H200.811Z" fill="#FFFAF3"/>
<path d="M113.198 64.6892C114.748 64.6892 116.029 65.0985 117.043 65.9172C118.057 66.7214 118.687 67.82 118.933 69.2132H116.305C116.16 68.4664 115.805 67.8848 115.24 67.4682C114.69 67.0374 113.995 66.822 113.155 66.822C112.199 66.822 111.402 67.1595 110.765 67.8344C110.128 68.4951 109.809 69.4717 109.809 70.7642C109.809 72.0567 110.128 73.0406 110.765 73.7155C111.402 74.3906 112.199 74.728 113.155 74.728C113.995 74.728 114.69 74.5126 115.24 74.0817C115.805 73.6509 116.16 73.062 116.305 72.3153H118.933C118.687 73.7084 118.057 74.8143 117.043 75.6328C116.029 76.4514 114.748 76.8607 113.198 76.8607C112.039 76.8607 111.011 76.6166 110.113 76.1283C109.23 75.64 108.535 74.9363 108.028 74.0171C107.521 73.098 107.268 72.0136 107.268 70.7642C107.268 69.5291 107.521 68.452 108.028 67.5328C108.535 66.6137 109.23 65.91 110.113 65.4216C111.011 64.9333 112.039 64.6892 113.198 64.6892Z" fill="#FFFAF3"/>
<path d="M126.126 64.6892C127.212 64.6892 128.139 64.955 128.906 65.4864C129.674 66.0177 130.217 66.7214 130.536 67.5975V64.84H133.012V76.7099H130.536V73.9525C130.217 74.8285 129.674 75.5323 128.906 76.0637C128.139 76.5951 127.212 76.8607 126.126 76.8607C125.083 76.8607 124.149 76.6166 123.324 76.1283C122.513 75.64 121.875 74.9363 121.412 74.0171C120.949 73.098 120.717 72.0136 120.717 70.7642C120.717 69.5291 120.949 68.452 121.412 67.5328C121.875 66.6137 122.513 65.91 123.324 65.4216C124.149 64.9333 125.083 64.6892 126.126 64.6892ZM126.886 66.8435C125.786 66.8435 124.902 67.1953 124.236 67.899C123.584 68.5884 123.258 69.5435 123.258 70.7642C123.258 71.9849 123.584 72.9472 124.236 73.6509C124.902 74.3402 125.786 74.6849 126.886 74.6849C127.581 74.6849 128.204 74.527 128.754 74.211C129.305 73.8807 129.739 73.4211 130.058 72.8323C130.376 72.2434 130.536 71.5541 130.536 70.7642C130.536 69.9887 130.376 69.3065 130.058 68.7176C129.739 68.1145 129.305 67.6549 128.754 67.339C128.204 67.0087 127.581 66.8435 126.886 66.8435Z" fill="#FFFAF3"/>
<path d="M139.917 64.6892C141.322 64.6892 142.444 65.0483 143.284 65.7663C144.139 66.47 144.66 67.418 144.848 68.6099H142.502C142.401 67.9637 142.118 67.4467 141.655 67.0589C141.206 66.6568 140.605 66.4558 139.852 66.4558C139.229 66.4558 138.744 66.6065 138.396 66.9081C138.063 67.1953 137.897 67.5903 137.897 68.0929C137.897 68.4664 138.02 68.768 138.266 68.9978C138.512 69.2275 138.816 69.4071 139.178 69.5363C139.555 69.6656 140.084 69.8091 140.764 69.9672C141.662 70.1682 142.386 70.3765 142.937 70.5919C143.501 70.8073 143.979 71.152 144.37 71.6259C144.776 72.0855 144.978 72.7175 144.978 73.5216C144.978 74.5126 144.595 75.3169 143.827 75.9344C143.074 76.552 142.053 76.8607 140.764 76.8607C139.272 76.8607 138.063 76.516 137.136 75.8267C136.224 75.1374 135.674 74.175 135.485 72.94H137.897C137.969 73.5863 138.259 74.1104 138.766 74.5126C139.272 74.9147 139.939 75.1157 140.764 75.1157C141.358 75.1157 141.821 74.9649 142.155 74.6634C142.502 74.3475 142.676 73.9525 142.676 73.4786C142.676 73.062 142.545 72.7317 142.285 72.4876C142.024 72.2434 141.698 72.0568 141.307 71.9276C140.916 71.7839 140.38 71.6403 139.7 71.4966C138.831 71.2956 138.121 71.0946 137.571 70.8935C137.035 70.6924 136.572 70.3693 136.181 69.9241C135.804 69.4644 135.616 68.847 135.616 68.0714C135.616 67.0661 135.992 66.2546 136.745 65.6372C137.513 65.0052 138.57 64.6892 139.917 64.6892Z" fill="#FFFAF3"/>
<path d="M147.114 61.3931C147.114 60.9766 147.259 60.6319 147.549 60.359C147.838 60.0861 148.222 59.9497 148.7 59.9497C149.178 59.9497 149.562 60.0861 149.851 60.359C150.155 60.6319 150.308 60.9766 150.308 61.3931C150.308 61.8096 150.155 62.1471 149.851 62.4056C149.562 62.6641 149.178 62.7934 148.7 62.7934C148.222 62.7934 147.838 62.6641 147.549 62.4056C147.259 62.1471 147.114 61.8096 147.114 61.3931ZM149.938 64.8399V76.7098H147.462V64.8399H149.938Z" fill="#FFFAF3"/>
<path d="M159.625 64.646C161.016 64.646 162.131 65.0913 162.971 65.9816C163.811 66.8721 164.231 68.1432 164.231 69.7947V76.7098H161.754V70.0532C161.754 68.9904 161.479 68.1718 160.929 67.5974C160.378 67.0086 159.625 66.7142 158.67 66.7142C157.685 66.7142 156.896 67.03 156.302 67.662C155.708 68.2796 155.411 69.1916 155.411 70.3979V76.7098H152.935V64.8399H155.411V67.4466C155.73 66.5561 156.266 65.8668 157.019 65.3785C157.772 64.8903 158.641 64.646 159.625 64.646Z" fill="#FFFAF3"/>
<path d="M172.601 64.6892C173.76 64.6892 174.802 64.9333 175.729 65.4216C176.656 65.91 177.381 66.6137 177.901 67.5328C178.423 68.452 178.684 69.5291 178.684 70.7642C178.684 72.0136 178.423 73.098 177.901 74.0171C177.381 74.9363 176.656 75.64 175.729 76.1283C174.802 76.6166 173.76 76.8607 172.601 76.8607C171.443 76.8607 170.399 76.6166 169.473 76.1283C168.561 75.64 167.837 74.9363 167.3 74.0171C166.78 73.0837 166.519 71.9993 166.519 70.7642C166.519 69.5291 166.78 68.452 167.3 67.5328C167.837 66.6137 168.561 65.91 169.473 65.4216C170.399 64.9333 171.443 64.6892 172.601 64.6892ZM172.601 66.822C171.964 66.822 171.377 66.9656 170.842 67.2528C170.306 67.54 169.871 67.9852 169.538 68.5884C169.22 69.1773 169.061 69.9025 169.061 70.7642C169.061 71.6403 169.22 72.3727 169.538 72.9616C169.871 73.5503 170.306 73.9884 170.842 74.2756C171.377 74.5629 171.964 74.7064 172.601 74.7064C173.238 74.7064 173.825 74.5629 174.36 74.2756C174.897 73.9884 175.324 73.5503 175.642 72.9616C175.976 72.3727 176.142 71.6403 176.142 70.7642C176.142 69.9025 175.976 69.1773 175.642 68.5884C175.324 67.9852 174.897 67.54 174.36 67.2528C173.825 66.9656 173.238 66.822 172.601 66.822Z" fill="#FFFAF3"/>
<path fill-rule="evenodd" clip-rule="evenodd" d="M69.0539 33.4672L85.0298 42.5856C87.4565 43.9834 89.0069 46.6456 89.0069 49.5076V67.6112C89.0069 70.4732 87.4565 73.1354 84.9624 74.5332L69.0539 83.6516C67.7731 84.3838 66.4249 84.7165 65.0094 84.7165C63.5938 84.7165 62.1782 84.3838 60.9647 83.6516L45.0563 74.5997C42.5621 73.1354 41.0117 70.5398 41.0117 67.6778V49.5076C41.0117 46.6456 42.5621 43.9834 45.0563 42.5856L60.9647 33.4672C63.459 32.0695 66.5597 32.0695 69.0539 33.4672ZM70.1359 70.865H76.2666V45.7288H70.1359V61.3012L59.8822 45.7288H53.7516V70.865H59.8822V55.435L70.1359 70.865Z" fill="#FEC882"/>
<g opacity="0.3" filter="url(#filter0_f_0_146)">
<path d="M64.66 92.4444C62.9073 92.4444 61.2221 91.9785 59.6717 91.1132L39.9883 79.865C36.8874 78.1346 35 74.8732 35 71.3457V48.9158C35 45.3883 36.8874 42.1269 39.9883 40.3965L59.6717 29.1482C62.7725 27.4177 66.5474 27.4177 69.6482 29.1482L89.3317 40.3965C92.4324 42.1269 94.3199 45.3883 94.3199 48.9158V71.3457C94.3199 74.8732 92.4324 78.1346 89.3317 79.865L69.6482 91.1132C68.0978 91.9785 66.4126 92.4444 64.66 92.4444ZM64.66 28.9485C63.4466 28.9485 62.2332 29.2813 61.0873 29.8803L39.9209 41.9938C37.7638 43.2584 36.3482 45.5879 36.3482 48.0505V72.2109C36.3482 74.7401 37.6964 77.0031 39.9209 78.2677L61.0873 90.3145C63.2444 91.5791 66.0081 91.5791 68.1651 90.3145L89.3317 78.2677C91.4887 77.0031 92.9043 74.6735 92.9043 72.2109V48.0505C92.9043 45.5213 91.5562 43.2584 89.3317 41.9938L68.2326 29.8803C67.1541 29.2813 65.8733 28.9485 64.66 28.9485Z" fill="#FEC882"/>
<path d="M121.3 57.0178H117.586L111.373 47.6684V57.0178H107.658V41.7874H111.373L117.586 51.2228V41.7874H121.3V57.0178Z" fill="#FFFAF3"/>
<path d="M128.472 44.8462C129.398 44.8462 130.195 45.0545 130.861 45.4709C131.527 45.8873 132.02 46.4547 132.338 47.1728V44.997H136.031V57.0177H132.338V54.8419C132.02 55.56 131.527 56.1272 130.861 56.5438C130.195 56.9602 129.398 57.1685 128.472 57.1685C127.472 57.1685 126.574 56.9244 125.778 56.4359C124.996 55.9333 124.373 55.2152 123.91 54.2818C123.461 53.3482 123.236 52.2567 123.236 51.0073C123.236 49.7435 123.461 48.652 123.91 47.7329C124.373 46.7993 124.996 46.0885 125.778 45.6001C126.574 45.0974 127.472 44.8462 128.472 44.8462ZM129.666 48.0775C128.87 48.0775 128.225 48.336 127.733 48.8531C127.255 49.3701 127.016 50.0882 127.016 51.0073C127.016 51.9265 127.255 52.6445 127.733 53.1616C128.225 53.6786 128.87 53.9371 129.666 53.9371C130.448 53.9371 131.086 53.6714 131.578 53.1401C132.085 52.6087 132.338 51.8977 132.338 51.0073C132.338 50.1026 132.085 49.3916 131.578 48.8746C131.086 48.3432 130.448 48.0775 129.666 48.0775Z" fill="#FFFAF3"/>
<path d="M145.453 53.8511V57.0179H143.78C142.361 57.0179 141.253 56.6732 140.457 55.9838C139.675 55.28 139.284 54.1239 139.284 52.5155V48.0993H137.654V44.9972H139.284V42.0459H142.998V44.9972H145.431V48.0993H142.998V52.5801C142.998 53.054 143.092 53.3844 143.281 53.5711C143.483 53.7577 143.817 53.8511 144.28 53.8511H145.453Z" fill="#FFFAF3"/>
<path d="M147.193 41.6148C147.193 41.0547 147.396 40.5952 147.802 40.2362C148.207 39.8627 148.743 39.676 149.409 39.676C150.075 39.676 150.611 39.8627 151.017 40.2362C151.422 40.5952 151.625 41.0547 151.625 41.6148C151.625 42.1606 151.422 42.6201 151.017 42.9936C150.611 43.3527 150.075 43.5321 149.409 43.5321C148.743 43.5321 148.207 43.3527 147.802 42.9936C147.396 42.6201 147.193 42.1606 147.193 41.6148ZM151.256 44.997V57.0177H147.541V44.997H151.256Z" fill="#FFFAF3"/>
<path d="M159.49 44.8462C160.692 44.8462 161.764 45.0974 162.705 45.6001C163.661 46.0885 164.407 46.7993 164.943 47.7329C165.493 48.6663 165.768 49.7578 165.768 51.0073C165.768 52.2567 165.493 53.3482 164.943 54.2818C164.407 55.2152 163.661 55.9333 162.705 56.4359C161.764 56.9244 160.692 57.1685 159.49 57.1685C158.288 57.1685 157.209 56.9244 156.254 56.4359C155.298 55.9333 154.545 55.2152 153.994 54.2818C153.459 53.3482 153.191 52.2567 153.191 51.0073C153.191 49.7578 153.459 48.6663 153.994 47.7329C154.545 46.7993 155.298 46.0885 156.254 45.6001C157.209 45.0974 158.288 44.8462 159.49 44.8462ZM159.49 48.0345C158.781 48.0345 158.18 48.293 157.687 48.81C157.209 49.3127 156.97 50.0451 156.97 51.0073C156.97 51.9696 157.209 52.702 157.687 53.2047C158.18 53.7073 158.781 53.9586 159.49 53.9586C160.2 53.9586 160.794 53.7073 161.272 53.2047C161.75 52.702 161.989 51.9696 161.989 51.0073C161.989 50.0451 161.75 49.3127 161.272 48.81C160.794 48.293 160.2 48.0345 159.49 48.0345Z" fill="#FFFAF3"/>
<path d="M175.385 44.8679C176.775 44.8679 177.876 45.3276 178.687 46.2467C179.513 47.1658 179.925 48.4297 179.925 50.0381V57.0179H176.211V50.469C176.211 49.6648 175.993 49.04 175.558 48.5947C175.138 48.1352 174.574 47.9054 173.864 47.9054C173.111 47.9054 172.511 48.1424 172.061 48.6164C171.626 49.0903 171.409 49.7653 171.409 50.6413V57.0179H167.694V44.9972H171.409V47.1945C171.757 46.4764 172.271 45.9092 172.952 45.4926C173.646 45.0762 174.458 44.8679 175.385 44.8679Z" fill="#FFFAF3"/>
<path d="M186.979 44.8462C187.907 44.8462 188.703 45.0545 189.37 45.4709C190.035 45.8873 190.528 46.4547 190.847 47.1728V44.997H194.539V57.0177H190.847V54.8419C190.528 55.56 190.035 56.1272 189.37 56.5438C188.703 56.9602 187.907 57.1685 186.979 57.1685C185.981 57.1685 185.082 56.9244 184.286 56.4359C183.503 55.9333 182.881 55.2152 182.417 54.2818C181.968 53.3482 181.744 52.2567 181.744 51.0073C181.744 49.7435 181.968 48.652 182.417 47.7329C182.881 46.7993 183.503 46.0885 184.286 45.6001C185.082 45.0974 185.981 44.8462 186.979 44.8462ZM188.174 48.0775C187.377 48.0775 186.733 48.336 186.241 48.8531C185.763 49.3701 185.525 50.0882 185.525 51.0073C185.525 51.9265 185.763 52.6445 186.241 53.1616C186.733 53.6786 187.377 53.9371 188.174 53.9371C188.956 53.9371 189.594 53.6714 190.086 53.1401C190.592 52.6087 190.847 51.8977 190.847 51.0073C190.847 50.1026 190.592 49.3916 190.086 48.8746C189.594 48.3432 188.956 48.0775 188.174 48.0775Z" fill="#FFFAF3"/>
<path d="M200.811 41.0764V57.0178H197.097V41.0764H200.811Z" fill="#FFFAF3"/>
<path d="M113.198 66.5393C114.748 66.5393 116.029 66.9486 117.043 67.7673C118.057 68.5715 118.687 69.6701 118.933 71.0633H116.305C116.16 70.3165 115.805 69.7349 115.24 69.3183C114.69 68.8875 113.995 68.6721 113.155 68.6721C112.199 68.6721 111.402 69.0096 110.765 69.6845C110.128 70.3452 109.809 71.3218 109.809 72.6143C109.809 73.9068 110.128 74.8907 110.765 75.5656C111.402 76.2407 112.199 76.5781 113.155 76.5781C113.995 76.5781 114.69 76.3627 115.24 75.9318C115.805 75.501 116.16 74.9121 116.305 74.1654H118.933C118.687 75.5585 118.057 76.6644 117.043 77.4829C116.029 78.3015 114.748 78.7108 113.198 78.7108C112.039 78.7108 111.011 78.4667 110.113 77.9784C109.23 77.4901 108.535 76.7864 108.028 75.8672C107.521 74.9481 107.268 73.8637 107.268 72.6143C107.268 71.3792 107.521 70.3021 108.028 69.3829C108.535 68.4638 109.23 67.7601 110.113 67.2717C111.011 66.7834 112.039 66.5393 113.198 66.5393Z" fill="#FFFAF3"/>
<path d="M126.126 66.5393C127.212 66.5393 128.139 66.8051 128.906 67.3364C129.674 67.8678 130.217 68.5715 130.536 69.4476V66.6901H133.012V78.56H130.536V75.8026C130.217 76.6786 129.674 77.3824 128.906 77.9138C128.139 78.4452 127.212 78.7108 126.126 78.7108C125.083 78.7108 124.149 78.4667 123.324 77.9784C122.513 77.4901 121.875 76.7864 121.412 75.8672C120.949 74.9481 120.717 73.8637 120.717 72.6143C120.717 71.3792 120.949 70.3021 121.412 69.3829C121.875 68.4638 122.513 67.7601 123.324 67.2717C124.149 66.7834 125.083 66.5393 126.126 66.5393ZM126.886 68.6936C125.786 68.6936 124.902 69.0454 124.236 69.7491C123.584 70.4385 123.258 71.3936 123.258 72.6143C123.258 73.835 123.584 74.7973 124.236 75.501C124.902 76.1903 125.786 76.535 126.886 76.535C127.581 76.535 128.204 76.3771 128.754 76.0611C129.305 75.7308 129.739 75.2712 130.058 74.6824C130.376 74.0935 130.536 73.4042 130.536 72.6143C130.536 71.8388 130.376 71.1566 130.058 70.5677C129.739 69.9646 129.305 69.505 128.754 69.1891C128.204 68.8588 127.581 68.6936 126.886 68.6936Z" fill="#FFFAF3"/>
<path d="M139.917 66.5393C141.322 66.5393 142.444 66.8984 143.284 67.6164C144.139 68.3201 144.66 69.2681 144.848 70.46H142.502C142.401 69.8138 142.118 69.2968 141.655 68.909C141.206 68.5069 140.605 68.3059 139.852 68.3059C139.229 68.3059 138.744 68.4566 138.396 68.7582C138.063 69.0454 137.897 69.4404 137.897 69.943C137.897 70.3165 138.02 70.6181 138.266 70.8479C138.512 71.0776 138.816 71.2572 139.178 71.3864C139.555 71.5157 140.084 71.6592 140.764 71.8173C141.662 72.0183 142.386 72.2266 142.937 72.442C143.501 72.6574 143.979 73.0021 144.37 73.476C144.776 73.9356 144.978 74.5676 144.978 75.3717C144.978 76.3627 144.595 77.167 143.827 77.7845C143.074 78.4021 142.053 78.7108 140.764 78.7108C139.272 78.7108 138.063 78.3661 137.136 77.6768C136.224 76.9875 135.674 76.0251 135.485 74.7901H137.897C137.969 75.4364 138.259 75.9605 138.766 76.3627C139.272 76.7648 139.939 76.9658 140.764 76.9658C141.358 76.9658 141.821 76.815 142.155 76.5135C142.502 76.1976 142.676 75.8026 142.676 75.3287C142.676 74.9121 142.545 74.5818 142.285 74.3377C142.024 74.0935 141.698 73.9069 141.307 73.7777C140.916 73.634 140.38 73.4904 139.7 73.3467C138.831 73.1457 138.121 72.9447 137.571 72.7436C137.035 72.5425 136.572 72.2194 136.181 71.7742C135.804 71.3145 135.616 70.6971 135.616 69.9215C135.616 68.9162 135.992 68.1047 136.745 67.4873C137.513 66.8553 138.57 66.5393 139.917 66.5393Z" fill="#FFFAF3"/>
<path d="M147.114 63.2434C147.114 62.827 147.259 62.4822 147.549 62.2094C147.838 61.9365 148.222 61.8 148.7 61.8C149.178 61.8 149.562 61.9365 149.851 62.2094C150.155 62.4822 150.308 62.827 150.308 63.2434C150.308 63.66 150.155 63.9974 149.851 64.2559C149.562 64.5144 149.178 64.6438 148.7 64.6438C148.222 64.6438 147.838 64.5144 147.549 64.2559C147.259 63.9974 147.114 63.66 147.114 63.2434ZM149.938 66.6902V78.5601H147.462V66.6902H149.938Z" fill="#FFFAF3"/>
<path d="M159.625 66.4963C161.016 66.4963 162.131 66.9416 162.971 67.832C163.811 68.7225 164.231 69.9935 164.231 71.645V78.5601H161.754V71.9035C161.754 70.8407 161.479 70.0221 160.929 69.4478C160.378 68.8589 159.625 68.5645 158.67 68.5645C157.685 68.5645 156.896 68.8804 156.302 69.5124C155.708 70.1299 155.411 71.0419 155.411 72.2482V78.5601H152.935V66.6903H155.411V69.297C155.73 68.4065 156.266 67.7172 157.019 67.2289C157.772 66.7406 158.641 66.4963 159.625 66.4963Z" fill="#FFFAF3"/>
<path d="M172.601 66.5393C173.76 66.5393 174.802 66.7834 175.729 67.2717C176.656 67.7601 177.381 68.4638 177.901 69.3829C178.423 70.3021 178.684 71.3792 178.684 72.6143C178.684 73.8637 178.423 74.9481 177.901 75.8672C177.381 76.7864 176.656 77.4901 175.729 77.9784C174.802 78.4667 173.76 78.7108 172.601 78.7108C171.443 78.7108 170.399 78.4667 169.473 77.9784C168.561 77.4901 167.837 76.7864 167.3 75.8672C166.78 74.9338 166.519 73.8494 166.519 72.6143C166.519 71.3792 166.78 70.3021 167.3 69.3829C167.837 68.4638 168.561 67.7601 169.473 67.2717C170.399 66.7834 171.443 66.5393 172.601 66.5393ZM172.601 68.6721C171.964 68.6721 171.377 68.8157 170.842 69.1029C170.306 69.3901 169.871 69.8353 169.538 70.4385C169.22 71.0274 169.061 71.7526 169.061 72.6143C169.061 73.4904 169.22 74.2228 169.538 74.8117C169.871 75.4004 170.306 75.8385 170.842 76.1257C171.377 76.413 171.964 76.5565 172.601 76.5565C173.238 76.5565 173.825 76.413 174.36 76.1257C174.897 75.8385 175.324 75.4004 175.642 74.8117C175.976 74.2228 176.142 73.4904 176.142 72.6143C176.142 71.7526 175.976 71.0274 175.642 70.4385C175.324 69.8353 174.897 69.3901 174.36 69.1029C173.825 68.8157 173.238 68.6721 172.601 68.6721Z" fill="#FFFAF3"/>
<path fill-rule="evenodd" clip-rule="evenodd" d="M69.0539 35.3176L85.0298 44.436C87.4565 45.8337 89.0069 48.4959 89.0069 51.3579V69.4615C89.0069 72.3236 87.4565 74.9858 84.9624 76.3835L69.0539 85.502C67.7731 86.2341 66.4249 86.5668 65.0094 86.5668C63.5938 86.5668 62.1782 86.2341 60.9647 85.502L45.0563 76.4501C42.5621 74.9858 41.0117 72.3902 41.0117 69.5281V51.3579C41.0117 48.4959 42.5621 45.8337 45.0563 44.436L60.9647 35.3176C63.459 33.9199 66.5597 33.9199 69.0539 35.3176ZM70.1359 72.7154H76.2666V47.5792H70.1359V63.1515L59.8822 47.5792H53.7516V72.7154H59.8822V57.2853L70.1359 72.7154Z" fill="#FEC882"/>
<path d="M64.66 91.8162C62.9073 91.8162 61.2221 91.3503 59.6717 90.485L39.9883 79.2368C36.8874 77.5064 35 74.245 35 70.7175V48.2876C35 44.7601 36.8874 41.4988 39.9883 39.7683L59.6717 28.52C62.7725 26.7895 66.5474 26.7895 69.6482 28.52L89.3317 39.7683C92.4324 41.4988 94.3199 44.7601 94.3199 48.2876V70.7175C94.3199 74.245 92.4324 77.5064 89.3317 79.2368L69.6482 90.485C68.0978 91.3503 66.4126 91.8162 64.66 91.8162ZM64.66 28.3204C63.4466 28.3204 62.2332 28.6532 61.0873 29.2522L39.9209 41.3656C37.7638 42.6302 36.3482 44.9597 36.3482 47.4223V71.5827C36.3482 74.1119 37.6964 76.3749 39.9209 77.6395L61.0873 89.6863C63.2444 90.9509 66.0081 90.9509 68.1651 89.6863L89.3317 77.6395C91.4887 76.3749 92.9043 74.0453 92.9043 71.5827V47.4223C92.9043 44.8931 91.5562 42.6302 89.3317 41.3656L68.2326 29.2522C67.1541 28.6532 65.8733 28.3204 64.66 28.3204Z" fill="#FEC882"/>
<path d="M121.3 56.3897H117.586L111.373 47.0403V56.3897H107.658V41.1592H111.373L117.586 50.5947V41.1592H121.3V56.3897Z" fill="#FFFAF3"/>
<path d="M128.472 44.218C129.398 44.218 130.195 44.4263 130.861 44.8427C131.527 45.2592 132.02 45.8265 132.338 46.5446V44.3688H136.031V56.3895H132.338V54.2137C132.02 54.9318 131.527 55.499 130.861 55.9156C130.195 56.332 129.398 56.5403 128.472 56.5403C127.472 56.5403 126.574 56.2962 125.778 55.8078C124.996 55.3051 124.373 54.5871 123.91 53.6536C123.461 52.72 123.236 51.6285 123.236 50.3791C123.236 49.1153 123.461 48.0238 123.91 47.1047C124.373 46.1711 124.996 45.4603 125.778 44.9719C126.574 44.4693 127.472 44.218 128.472 44.218ZM129.666 47.4493C128.87 47.4493 128.225 47.7078 127.733 48.225C127.255 48.742 127.016 49.46 127.016 50.3791C127.016 51.2983 127.255 52.0164 127.733 52.5334C128.225 53.0504 128.87 53.3089 129.666 53.3089C130.448 53.3089 131.086 53.0433 131.578 52.5119C132.085 51.9805 132.338 51.2696 132.338 50.3791C132.338 49.4744 132.085 48.7635 131.578 48.2464C131.086 47.7151 130.448 47.4493 129.666 47.4493Z" fill="#FFFAF3"/>
<path d="M145.453 53.2229V56.3897H143.78C142.361 56.3897 141.253 56.045 140.457 55.3557C139.675 54.6519 139.284 53.4958 139.284 51.8874V47.4711H137.654V44.369H139.284V41.4177H142.998V44.369H145.431V47.4711H142.998V51.952C142.998 52.4259 143.092 52.7562 143.281 52.9429C143.483 53.1295 143.817 53.2229 144.28 53.2229H145.453Z" fill="#FFFAF3"/>
<path d="M147.193 40.9866C147.193 40.4265 147.396 39.967 147.802 39.608C148.207 39.2346 148.743 39.0479 149.409 39.0479C150.075 39.0479 150.611 39.2346 151.017 39.608C151.422 39.967 151.625 40.4265 151.625 40.9866C151.625 41.5324 151.422 41.9919 151.017 42.3654C150.611 42.7245 150.075 42.9039 149.409 42.9039C148.743 42.9039 148.207 42.7245 147.802 42.3654C147.396 41.9919 147.193 41.5324 147.193 40.9866ZM151.256 44.3689V56.3896H147.541V44.3689H151.256Z" fill="#FFFAF3"/>
<path d="M159.49 44.218C160.692 44.218 161.764 44.4693 162.705 44.9719C163.661 45.4603 164.407 46.1711 164.943 47.1047C165.493 48.0382 165.768 49.1297 165.768 50.3791C165.768 51.6285 165.493 52.72 164.943 53.6536C164.407 54.5871 163.661 55.3051 162.705 55.8078C161.764 56.2962 160.692 56.5403 159.49 56.5403C158.288 56.5403 157.209 56.2962 156.254 55.8078C155.298 55.3051 154.545 54.5871 153.994 53.6536C153.459 52.72 153.191 51.6285 153.191 50.3791C153.191 49.1297 153.459 48.0382 153.994 47.1047C154.545 46.1711 155.298 45.4603 156.254 44.9719C157.209 44.4693 158.288 44.218 159.49 44.218ZM159.49 47.4063C158.781 47.4063 158.18 47.6648 157.687 48.1818C157.209 48.6845 156.97 49.4169 156.97 50.3791C156.97 51.3414 157.209 52.0738 157.687 52.5765C158.18 53.0791 158.781 53.3304 159.49 53.3304C160.2 53.3304 160.794 53.0791 161.272 52.5765C161.75 52.0738 161.989 51.3414 161.989 50.3791C161.989 49.4169 161.75 48.6845 161.272 48.1818C160.794 47.6648 160.2 47.4063 159.49 47.4063Z" fill="#FFFAF3"/>
<path d="M175.385 44.2397C176.775 44.2397 177.876 44.6994 178.687 45.6185C179.513 46.5376 179.925 47.8015 179.925 49.4099V56.3898H176.211V49.8408C176.211 49.0366 175.993 48.4119 175.558 47.9666C175.138 47.507 174.574 47.2772 173.864 47.2772C173.111 47.2772 172.511 47.5143 172.061 47.9882C171.626 48.4621 171.409 49.1372 171.409 50.0131V56.3898H167.694V44.3691H171.409V46.5663C171.757 45.8483 172.271 45.281 172.952 44.8645C173.646 44.448 174.458 44.2397 175.385 44.2397Z" fill="#FFFAF3"/>
<path d="M186.979 44.218C187.907 44.218 188.703 44.4263 189.37 44.8427C190.035 45.2592 190.528 45.8265 190.847 46.5446V44.3688H194.539V56.3895H190.847V54.2137C190.528 54.9318 190.035 55.499 189.37 55.9156C188.703 56.332 187.907 56.5403 186.979 56.5403C185.981 56.5403 185.082 56.2962 184.286 55.8078C183.503 55.3051 182.881 54.5871 182.417 53.6536C181.968 52.72 181.744 51.6285 181.744 50.3791C181.744 49.1153 181.968 48.0238 182.417 47.1047C182.881 46.1711 183.503 45.4603 184.286 44.9719C185.082 44.4693 185.981 44.218 186.979 44.218ZM188.174 47.4493C187.377 47.4493 186.733 47.7078 186.241 48.225C185.763 48.742 185.525 49.46 185.525 50.3791C185.525 51.2983 185.763 52.0164 186.241 52.5334C186.733 53.0504 187.377 53.3089 188.174 53.3089C188.956 53.3089 189.594 53.0433 190.086 52.5119C190.592 51.9805 190.847 51.2696 190.847 50.3791C190.847 49.4744 190.592 48.7635 190.086 48.2464C189.594 47.7151 188.956 47.4493 188.174 47.4493Z" fill="#FFFAF3"/>
<path d="M200.811 40.4482V56.3897H197.097V40.4482H200.811Z" fill="#FFFAF3"/>
<path d="M113.198 65.9111C114.748 65.9111 116.029 66.3204 117.043 67.1391C118.057 67.9433 118.687 69.042 118.933 70.4351H116.305C116.16 69.6883 115.805 69.1067 115.24 68.6901C114.69 68.2593 113.995 68.0439 113.155 68.0439C112.199 68.0439 111.402 68.3814 110.765 69.0563C110.128 69.717 109.809 70.6936 109.809 71.9861C109.809 73.2787 110.128 74.2625 110.765 74.9374C111.402 75.6125 112.199 75.95 113.155 75.95C113.995 75.95 114.69 75.7346 115.24 75.3036C115.805 74.8728 116.16 74.284 116.305 73.5372H118.933C118.687 74.9303 118.057 76.0362 117.043 76.8547C116.029 77.6733 114.748 78.0826 113.198 78.0826C112.039 78.0826 111.011 77.8385 110.113 77.3502C109.23 76.8619 108.535 76.1583 108.028 75.239C107.521 74.32 107.268 73.2356 107.268 71.9861C107.268 70.7511 107.521 69.6739 108.028 68.7547C108.535 67.8356 109.23 67.132 110.113 66.6435C111.011 66.1553 112.039 65.9111 113.198 65.9111Z" fill="#FFFAF3"/>
<path d="M126.126 65.9111C127.212 65.9111 128.139 66.1769 128.906 66.7083C129.674 67.2397 130.217 67.9433 130.536 68.8194V66.0619H133.012V77.9318H130.536V75.1744C130.217 76.0504 129.674 76.7542 128.906 77.2856C128.139 77.817 127.212 78.0826 126.126 78.0826C125.083 78.0826 124.149 77.8385 123.324 77.3502C122.513 76.8619 121.875 76.1583 121.412 75.239C120.949 74.32 120.717 73.2356 120.717 71.9861C120.717 70.7511 120.949 69.6739 121.412 68.7547C121.875 67.8356 122.513 67.132 123.324 66.6435C124.149 66.1553 125.083 65.9111 126.126 65.9111ZM126.886 68.0654C125.786 68.0654 124.902 68.4172 124.236 69.1209C123.584 69.8104 123.258 70.7654 123.258 71.9861C123.258 73.2068 123.584 74.1691 124.236 74.8728C124.902 75.5621 125.786 75.9069 126.886 75.9069C127.581 75.9069 128.204 75.7489 128.754 75.433C129.305 75.1026 129.739 74.6431 130.058 74.0542C130.376 73.4653 130.536 72.776 130.536 71.9861C130.536 71.2106 130.376 70.5284 130.058 69.9396C129.739 69.3365 129.305 68.8768 128.754 68.5609C128.204 68.2306 127.581 68.0654 126.886 68.0654Z" fill="#FFFAF3"/>
<path d="M139.917 65.9111C141.322 65.9111 142.444 66.2702 143.284 66.9883C144.139 67.692 144.66 68.6399 144.848 69.8319H142.502C142.401 69.1857 142.118 68.6686 141.655 68.2808C141.206 67.8787 140.605 67.6777 139.852 67.6777C139.229 67.6777 138.744 67.8284 138.396 68.13C138.063 68.4173 137.897 68.8122 137.897 69.3148C137.897 69.6883 138.02 69.9899 138.266 70.2197C138.512 70.4495 138.816 70.629 139.178 70.7582C139.555 70.8875 140.084 71.0311 140.764 71.1891C141.662 71.3902 142.386 71.5984 142.937 71.8138C143.501 72.0292 143.979 72.374 144.37 72.8479C144.776 73.3074 144.978 73.9394 144.978 74.7435C144.978 75.7346 144.595 76.5388 143.827 77.1563C143.074 77.7739 142.053 78.0826 140.764 78.0826C139.272 78.0826 138.063 77.7379 137.136 77.0486C136.224 76.3593 135.674 75.397 135.485 74.1619H137.897C137.969 74.8082 138.259 75.3324 138.766 75.7346C139.272 76.1366 139.939 76.3377 140.764 76.3377C141.358 76.3377 141.821 76.1869 142.155 75.8854C142.502 75.5694 142.676 75.1744 142.676 74.7005C142.676 74.284 142.545 73.9536 142.285 73.7095C142.024 73.4653 141.698 73.2787 141.307 73.1495C140.916 73.0058 140.38 72.8622 139.7 72.7186C138.831 72.5175 138.121 72.3165 137.571 72.1155C137.035 71.9143 136.572 71.5912 136.181 71.146C135.804 70.6863 135.616 70.0689 135.616 69.2934C135.616 68.2881 135.992 67.4766 136.745 66.8591C137.513 66.2271 138.57 65.9111 139.917 65.9111Z" fill="#FFFAF3"/>
<path d="M147.114 62.6152C147.114 62.1988 147.259 61.8541 147.549 61.5812C147.838 61.3083 148.222 61.1719 148.7 61.1719C149.178 61.1719 149.562 61.3083 149.851 61.5812C150.155 61.8541 150.308 62.1988 150.308 62.6152C150.308 63.0318 150.155 63.3693 149.851 63.6278C149.562 63.8863 149.178 64.0156 148.7 64.0156C148.222 64.0156 147.838 63.8863 147.549 63.6278C147.259 63.3693 147.114 63.0318 147.114 62.6152ZM149.938 66.062V77.9319H147.462V66.062H149.938Z" fill="#FFFAF3"/>
<path d="M159.625 65.8682C161.016 65.8682 162.131 66.3135 162.971 67.2038C163.811 68.0943 164.231 69.3653 164.231 71.0168V77.932H161.754V71.2753C161.754 70.2126 161.479 69.3939 160.929 68.8196C160.378 68.2307 159.625 67.9364 158.67 67.9364C157.685 67.9364 156.896 68.2522 156.302 68.8842C155.708 69.5018 155.411 70.4137 155.411 71.6201V77.932H152.935V66.0621H155.411V68.6688C155.73 67.7783 156.266 67.089 157.019 66.6007C157.772 66.1124 158.641 65.8682 159.625 65.8682Z" fill="#FFFAF3"/>
<path d="M172.601 65.9111C173.76 65.9111 174.802 66.1553 175.729 66.6435C176.656 67.132 177.381 67.8356 177.901 68.7547C178.423 69.6739 178.684 70.7511 178.684 71.9861C178.684 73.2356 178.423 74.32 177.901 75.239C177.381 76.1583 176.656 76.8619 175.729 77.3502C174.802 77.8385 173.76 78.0826 172.601 78.0826C171.443 78.0826 170.399 77.8385 169.473 77.3502C168.561 76.8619 167.837 76.1583 167.3 75.239C166.78 74.3056 166.519 73.2212 166.519 71.9861C166.519 70.7511 166.78 69.6739 167.3 68.7547C167.837 67.8356 168.561 67.132 169.473 66.6435C170.399 66.1553 171.443 65.9111 172.601 65.9111ZM172.601 68.0439C171.964 68.0439 171.377 68.1875 170.842 68.4747C170.306 68.762 169.871 69.2071 169.538 69.8104C169.22 70.3992 169.061 71.1244 169.061 71.9861C169.061 72.8622 169.22 73.5947 169.538 74.1835C169.871 74.7722 170.306 75.2103 170.842 75.4975C171.377 75.7848 171.964 75.9283 172.601 75.9283C173.238 75.9283 173.825 75.7848 174.36 75.4975C174.897 75.2103 175.324 74.7722 175.642 74.1835C175.976 73.5947 176.142 72.8622 176.142 71.9861C176.142 71.1244 175.976 70.3992 175.642 69.8104C175.324 69.2071 174.897 68.762 174.36 68.4747C173.825 68.1875 173.238 68.0439 172.601 68.0439Z" fill="#FFFAF3"/>
<path fill-rule="evenodd" clip-rule="evenodd" d="M69.0539 34.6894L85.0298 43.8078C87.4565 45.2055 89.0069 47.8677 89.0069 50.7298V68.8334C89.0069 71.6954 87.4565 74.3576 84.9624 75.7553L69.0539 84.8738C67.7731 85.6059 66.4249 85.9387 65.0094 85.9387C63.5938 85.9387 62.1782 85.6059 60.9647 84.8738L45.0563 75.8219C42.5621 74.3576 41.0117 71.762 41.0117 68.8999V50.7298C41.0117 47.8677 42.5621 45.2055 45.0563 43.8078L60.9647 34.6894C63.459 33.2917 66.5597 33.2917 69.0539 34.6894ZM70.1359 72.0872H76.2666V46.951H70.1359V62.5233L59.8822 46.951H53.7516V72.0872H59.8822V56.6571L70.1359 72.0872Z" fill="#FEC882"/>
</g>
<defs>
<filter id="filter0_f_0_146" x="0" y="-7.77783" width="235.811" height="135.222" filterUnits="userSpaceOnUse" color-interpolation-filters="sRGB">
<feFlood flood-opacity="0" result="BackgroundImageFix"/>
<feBlend mode="normal" in="SourceGraphic" in2="BackgroundImageFix" result="shape"/>
<feGaussianBlur stdDeviation="17.5" result="effect1_foregroundBlur_0_146"/>
</filter>
</defs>
</svg>
