<svg width="105" height="18" viewBox="0 0 105 18" fill="none" xmlns="http://www.w3.org/2000/svg">
<path d="M7.47115 1.69281C7.8454 0.97776 8.86888 0.977759 9.24313 1.69281L10.7929 4.65396C10.9303 4.91647 11.1771 5.10454 11.4666 5.16745L14.6716 5.86388C15.4105 6.02442 15.7108 6.91526 15.2199 7.49033L12.9288 10.1742C12.7503 10.3833 12.6657 10.6567 12.6951 10.9301L13.0754 14.4739C13.1595 15.2577 12.346 15.8261 11.639 15.4776L8.79924 14.0779C8.52052 13.9405 8.19377 13.9405 7.91504 14.0779L5.07528 15.4776C4.36825 15.8261 3.55478 15.2577 3.63889 14.4739L4.01919 10.9301C4.04854 10.6567 3.964 10.3833 3.78547 10.1742L1.49442 7.49033C1.00351 6.91526 1.30379 6.02442 2.04265 5.86388L5.24769 5.16745C5.53723 5.10454 5.78395 4.91647 5.92134 4.65396L7.47115 1.69281Z" fill="#FAFF00"/>
<path d="M28.8437 1.54558C29.2262 0.866931 30.2035 0.86693 30.586 1.54557L32.3468 4.66947C32.4895 4.92265 32.7352 5.10122 33.0201 5.1587L36.5352 5.86794C37.2989 6.02202 37.6009 6.95147 37.0736 7.52497L34.6467 10.1649C34.45 10.3788 34.3562 10.6678 34.3895 10.9565L34.8012 14.5187C34.8907 15.2926 34.1 15.867 33.3917 15.5428L30.131 14.0505C29.8667 13.9295 29.5629 13.9295 29.2987 14.0505L26.038 15.5428C25.3297 15.867 24.539 15.2926 24.6285 14.5187L25.0402 10.9565C25.0735 10.6678 24.9796 10.3788 24.783 10.1649L22.3561 7.52497C21.8288 6.95147 22.1308 6.02202 22.8945 5.86794L26.4096 5.1587C26.6945 5.10122 26.9402 4.92265 27.0829 4.66947L28.8437 1.54558Z" fill="#FAFF00"/>
<path d="M50.8437 1.54558C51.2262 0.866931 52.2035 0.86693 52.586 1.54557L54.3468 4.66947C54.4895 4.92265 54.7352 5.10122 55.0201 5.1587L58.5352 5.86794C59.2989 6.02202 59.6009 6.95147 59.0736 7.52497L56.6467 10.1649C56.45 10.3788 56.3562 10.6678 56.3895 10.9565L56.8012 14.5187C56.8907 15.2926 56.1 15.867 55.3917 15.5428L52.131 14.0505C51.8667 13.9295 51.5629 13.9295 51.2987 14.0505L48.038 15.5428C47.3297 15.867 46.539 15.2926 46.6285 14.5187L47.0402 10.9565C47.0735 10.6678 46.9796 10.3788 46.783 10.1649L44.3561 7.52497C43.8288 6.95147 44.1308 6.02202 44.8945 5.86794L48.4096 5.1587C48.6945 5.10122 48.9402 4.92265 49.0829 4.66947L50.8437 1.54558Z" fill="#FAFF00"/>
<path d="M72.8437 1.54558C73.2262 0.866931 74.2035 0.86693 74.586 1.54557L76.3468 4.66947C76.4895 4.92265 76.7352 5.10122 77.0201 5.1587L80.5352 5.86794C81.2989 6.02202 81.6009 6.95147 81.0736 7.52497L78.6467 10.1649C78.45 10.3788 78.3562 10.6678 78.3895 10.9565L78.8012 14.5187C78.8907 15.2926 78.1 15.867 77.3917 15.5428L74.131 14.0505C73.8667 13.9295 73.5629 13.9295 73.2987 14.0505L70.038 15.5428C69.3297 15.867 68.539 15.2926 68.6285 14.5187L69.0402 10.9565C69.0735 10.6678 68.9796 10.3788 68.783 10.1649L66.3561 7.52497C65.8288 6.95147 66.1308 6.02202 66.8945 5.86794L70.4096 5.1587C70.6945 5.10122 70.9402 4.92265 71.0829 4.66947L72.8437 1.54558Z" fill="#FAFF00"/>
<path d="M94.8437 1.54558C95.2262 0.866931 96.2035 0.86693 96.586 1.54557L98.3468 4.66947C98.4895 4.92265 98.7352 5.10122 99.0201 5.1587L102.535 5.86794C103.299 6.02202 103.601 6.95147 103.074 7.52497L100.647 10.1649C100.45 10.3788 100.356 10.6678 100.39 10.9565L100.801 14.5187C100.891 15.2926 100.1 15.867 99.3917 15.5428L96.131 14.0505C95.8667 13.9295 95.5629 13.9295 95.2987 14.0505L92.038 15.5428C91.3297 15.867 90.539 15.2926 90.6285 14.5187L91.0402 10.9565C91.0735 10.6678 90.9796 10.3788 90.783 10.1649L88.3561 7.52497C87.8288 6.95147 88.1308 6.02202 88.8945 5.86794L92.4096 5.1587C92.6945 5.10122 92.9402 4.92265 93.0829 4.66947L94.8437 1.54558Z" fill="#FAFF00"/>
</svg>
