<svg width="15" height="15" viewBox="0 0 15 15" fill="none" xmlns="http://www.w3.org/2000/svg">
<path d="M6.47115 0.692814C6.8454 -0.0222396 7.86888 -0.0222405 8.24313 0.692814L9.79294 3.65396C9.93033 3.91647 10.1771 4.10454 10.4666 4.16745L13.6716 4.86388C14.4105 5.02442 14.7108 5.91526 14.2199 6.49033L11.9288 9.17418C11.7503 9.38332 11.6657 9.65674 11.6951 9.93014L12.0754 13.4739C12.1595 14.2577 11.346 14.8261 10.639 14.4776L7.79924 13.0779C7.52052 12.9405 7.19377 12.9405 6.91504 13.0779L4.07528 14.4776C3.36825 14.8261 2.55478 14.2577 2.63889 13.4739L3.01919 9.93014C3.04854 9.65674 2.964 9.38332 2.78547 9.17418L0.494418 6.49033C0.00351429 5.91526 0.303792 5.02442 1.04265 4.86388L4.24769 4.16745C4.53723 4.10454 4.78395 3.91647 4.92134 3.65396L6.47115 0.692814Z" fill="#FAFF00"/>
</svg>
